<mxfile host="app.diagrams.net" agent="Mozilla/5.0 (Windows NT 10.0; Win64; x64) AppleWebKit/537.36 (KHTML, like Gecko) Chrome/136.0.0.0 Safari/537.36" version="27.0.9">
  <diagram name="第 1 页" id="uoYoGxqc6AboqhImI_lN">
    <mxGraphModel dx="1426" dy="823" grid="1" gridSize="10" guides="1" tooltips="1" connect="1" arrows="1" fold="1" page="1" pageScale="1" pageWidth="827" pageHeight="1169" math="0" shadow="0">
      <root>
        <mxCell id="0" />
        <mxCell id="1" parent="0" />
        <mxCell id="Kl5iVRcXR_Jul_TjP95B-7" value="" style="edgeStyle=orthogonalEdgeStyle;rounded=0;orthogonalLoop=1;jettySize=auto;html=1;" edge="1" parent="1" source="Kl5iVRcXR_Jul_TjP95B-1" target="Kl5iVRcXR_Jul_TjP95B-4">
          <mxGeometry relative="1" as="geometry" />
        </mxCell>
        <mxCell id="Kl5iVRcXR_Jul_TjP95B-1" value="net.tntp" style="shape=document;whiteSpace=wrap;html=1;boundedLbl=1;fontSize=14;" vertex="1" parent="1">
          <mxGeometry x="40" y="280" width="120" height="80" as="geometry" />
        </mxCell>
        <mxCell id="Kl5iVRcXR_Jul_TjP95B-8" value="" style="edgeStyle=orthogonalEdgeStyle;rounded=0;orthogonalLoop=1;jettySize=auto;html=1;" edge="1" parent="1" source="Kl5iVRcXR_Jul_TjP95B-2" target="Kl5iVRcXR_Jul_TjP95B-4">
          <mxGeometry relative="1" as="geometry" />
        </mxCell>
        <mxCell id="Kl5iVRcXR_Jul_TjP95B-2" value="trips.tntp" style="shape=document;whiteSpace=wrap;html=1;boundedLbl=1;fontSize=14;" vertex="1" parent="1">
          <mxGeometry x="40" y="410" width="120" height="80" as="geometry" />
        </mxCell>
        <mxCell id="Kl5iVRcXR_Jul_TjP95B-9" value="" style="edgeStyle=orthogonalEdgeStyle;rounded=0;orthogonalLoop=1;jettySize=auto;html=1;" edge="1" parent="1" source="Kl5iVRcXR_Jul_TjP95B-4" target="Kl5iVRcXR_Jul_TjP95B-5">
          <mxGeometry relative="1" as="geometry" />
        </mxCell>
        <mxCell id="Kl5iVRcXR_Jul_TjP95B-4" value="Python&lt;div&gt;進行交通指派&lt;/div&gt;" style="ellipse;whiteSpace=wrap;html=1;aspect=fixed;" vertex="1" parent="1">
          <mxGeometry x="240" y="340" width="80" height="80" as="geometry" />
        </mxCell>
        <mxCell id="Kl5iVRcXR_Jul_TjP95B-11" value="" style="edgeStyle=orthogonalEdgeStyle;rounded=0;orthogonalLoop=1;jettySize=auto;html=1;" edge="1" parent="1" source="Kl5iVRcXR_Jul_TjP95B-5" target="Kl5iVRcXR_Jul_TjP95B-10">
          <mxGeometry relative="1" as="geometry" />
        </mxCell>
        <mxCell id="Kl5iVRcXR_Jul_TjP95B-5" value="指派結果" style="rounded=1;whiteSpace=wrap;html=1;" vertex="1" parent="1">
          <mxGeometry x="360" y="350" width="80" height="60" as="geometry" />
        </mxCell>
        <mxCell id="Kl5iVRcXR_Jul_TjP95B-10" value="QGIS&lt;div&gt;疊圖分析&lt;/div&gt;" style="ellipse;whiteSpace=wrap;html=1;rounded=1;" vertex="1" parent="1">
          <mxGeometry x="480" y="340" width="80" height="80" as="geometry" />
        </mxCell>
        <mxCell id="Kl5iVRcXR_Jul_TjP95B-13" value="" style="edgeStyle=orthogonalEdgeStyle;rounded=0;orthogonalLoop=1;jettySize=auto;html=1;" edge="1" parent="1" source="Kl5iVRcXR_Jul_TjP95B-12" target="Kl5iVRcXR_Jul_TjP95B-10">
          <mxGeometry relative="1" as="geometry" />
        </mxCell>
        <mxCell id="Kl5iVRcXR_Jul_TjP95B-12" value="大台北都會區路網&lt;div&gt;( .shp 檔案 )&lt;/div&gt;" style="shape=document;whiteSpace=wrap;html=1;boundedLbl=1;" vertex="1" parent="1">
          <mxGeometry x="460" y="240" width="120" height="70" as="geometry" />
        </mxCell>
      </root>
    </mxGraphModel>
  </diagram>
</mxfile>
